<svg width="140" height="25" viewBox="0 0 140 25" fill="none" xmlns="http://www.w3.org/2000/svg">
<path d="M22.5515 0C22.7224 0 22.8863 0.0678847 23.0072 0.18872C23.128 0.309555 23.1959 0.473443 23.1959 0.64433V13.3505C22.3711 13.0541 21.5077 12.8866 20.6186 12.8866C18.634 12.8866 16.8299 13.6598 15.4639 14.8969V5.28351L7.73196 2.57732V17.9124L12.9381 19.7165C12.8866 20.0258 12.8866 20.3222 12.8866 20.6186C12.8866 21.2113 12.9639 21.8041 13.0928 22.3711L7.73196 20.4897L0.850516 23.1572C0.760309 23.1959 0.708763 23.1959 0.64433 23.1959C0.473443 23.1959 0.309555 23.128 0.18872 23.0072C0.0678847 22.8863 0 22.7224 0 22.5515V3.06701C0 2.77062 0.206185 2.53866 0.451031 2.44845L7.73196 0L15.4639 2.70619L22.3325 0" fill="#4285F4"/>
<g clip-path="url(#clip0_246_441)">
<path d="M20.3608 22.8521L19.9934 23.1912L20.0015 23.2C19.4924 23.1681 19.0512 23.07 18.7317 22.9378C18.5344 22.8561 18.4075 22.7714 18.3376 22.7025C18.3065 22.6719 18.2925 22.6508 18.2865 22.6392C18.2931 22.6271 18.3082 22.6049 18.341 22.5721C18.4164 22.4967 18.546 22.407 18.7373 22.3113L19.1125 22.1237C19.2816 22.3465 19.4393 22.543 19.5729 22.7044C19.6972 22.8547 19.8012 22.9751 19.8746 23.0586C19.9113 23.1003 19.9404 23.1328 19.9606 23.1552L19.9841 23.1811L19.9906 23.1882L19.9924 23.1902L19.993 23.1909L19.9932 23.1911C19.9933 23.1912 19.9934 23.1912 20.3608 22.8521ZM20.3608 22.8521L20.7307 23.1884L20.7202 23.2C21.2292 23.1681 21.6703 23.07 21.9898 22.9378C22.1872 22.8561 22.314 22.7714 22.3839 22.7025C22.4142 22.6727 22.4283 22.6519 22.4345 22.6401C22.4275 22.6284 22.4126 22.6082 22.3824 22.5792C22.3054 22.5052 22.1687 22.4151 21.958 22.3193L21.5817 22.1482C21.4236 22.3572 21.2763 22.5424 21.1504 22.6962C21.0262 22.848 20.9224 22.9699 20.8491 23.0543C20.8125 23.0965 20.7835 23.1294 20.7633 23.1521L20.7399 23.1783L20.7335 23.1854L20.7316 23.1874L20.7311 23.1881L20.7309 23.1883C20.7308 23.1884 20.7307 23.1884 20.3608 22.8521ZM18.2824 22.6285C18.2825 22.6285 18.2828 22.6294 18.2831 22.6313C18.2824 22.6294 18.2823 22.6285 18.2824 22.6285ZM18.2826 22.6475C18.2822 22.6492 18.2819 22.6501 18.2818 22.6501C18.2818 22.6501 18.2819 22.6492 18.2826 22.6475ZM22.4402 22.6522C22.4401 22.6522 22.4396 22.6511 22.4391 22.6489C22.4401 22.6511 22.4403 22.6522 22.4402 22.6522ZM22.4384 22.6313C22.4387 22.6294 22.439 22.6285 22.4391 22.6285C22.4392 22.6285 22.4391 22.6294 22.4384 22.6313ZM22.6083 21.0133L22.4155 20.9362C22.6251 20.5955 22.8247 20.2344 22.9906 19.8696C23.245 19.3099 23.4381 18.7026 23.4381 18.127C23.4381 16.4333 22.0544 15.0497 20.3608 15.0497C18.6671 15.0497 17.2834 16.4333 17.2834 18.127C17.2834 18.7119 17.4757 19.3239 17.7307 19.887C17.8914 20.2419 18.0837 20.5918 18.2861 20.9223L18.0619 21.0167C17.6188 21.2033 17.2228 21.4384 16.9305 21.7307C16.634 22.0272 16.4243 22.4052 16.4243 22.8521C16.4243 23.6173 17.036 24.1757 17.7102 24.5128C18.4156 24.8655 19.3543 25.0703 20.3608 25.0703C21.3672 25.0703 22.3059 24.8655 23.0113 24.5128C23.6855 24.1757 24.2972 23.6173 24.2972 22.8521C24.2972 22.404 24.0864 22.0246 23.7815 21.7267C23.4818 21.4337 23.0731 21.1992 22.6083 21.0133ZM20.3608 19.4861C20.7245 19.4861 21.0557 19.342 21.3 19.1079C21.2384 19.2441 21.1669 19.3879 21.0859 19.5379C20.8792 19.9208 20.6276 20.314 20.366 20.6811C20.0995 20.3019 19.8439 19.9044 19.6347 19.5202C19.558 19.3793 19.4899 19.2446 19.4307 19.1166C19.6741 19.3456 20.0015 19.4861 20.3608 19.4861Z" fill="#4285F4" stroke="white"/>
<path d="M20.1889 23.0238L19.8192 23.3605L19.8294 23.3716C19.3197 23.3392 18.8786 23.2397 18.5594 23.1067C18.3622 23.0246 18.2351 22.9395 18.1651 22.8706C18.1351 22.8411 18.1211 22.8206 18.1149 22.809C18.1211 22.7977 18.1348 22.7777 18.1641 22.7489C18.2334 22.6807 18.3595 22.5963 18.5556 22.5146L18.9811 22.3373C19.1342 22.5393 19.2769 22.7187 19.3992 22.8682C19.5235 23.0201 19.6274 23.1419 19.7007 23.2263C19.7373 23.2685 19.7664 23.3014 19.7866 23.3241L19.81 23.3503L19.8164 23.3574L19.8183 23.3594L19.8189 23.3601L19.8191 23.3603C19.8191 23.3604 19.8192 23.3605 20.1889 23.0238ZM20.1889 23.0238L20.5586 23.3605L20.5485 23.3716C21.0582 23.3392 21.4993 23.2397 21.8185 23.1067C22.0157 23.0246 22.1427 22.9395 22.2128 22.8706C22.2428 22.8411 22.2567 22.8205 22.263 22.809C22.2568 22.7977 22.243 22.7777 22.2138 22.7489C22.1444 22.6807 22.0184 22.5963 21.8222 22.5146L21.3967 22.3373C21.2436 22.5393 21.101 22.7187 20.9786 22.8682C20.8543 23.0201 20.7505 23.1419 20.6772 23.2263C20.6405 23.2685 20.6115 23.3014 20.5913 23.3241L20.5679 23.3503L20.5614 23.3574L20.5596 23.3594L20.559 23.3601L20.5588 23.3603C20.5587 23.3604 20.5586 23.3605 20.1889 23.0238ZM18.1103 22.798C18.1103 22.798 18.1107 22.7989 18.111 22.8007C18.1103 22.7989 18.1102 22.798 18.1103 22.798ZM18.111 22.8173C18.1107 22.8192 18.1103 22.8201 18.1102 22.8201C18.1101 22.8201 18.1103 22.8192 18.111 22.8173ZM17.5587 20.033C17.725 20.4012 17.9253 20.765 18.1357 21.1079L17.9083 21.1957C17.4587 21.3694 17.0585 21.6039 16.7629 21.8988C16.4653 22.1958 16.2525 22.5781 16.2525 23.0238C16.2525 23.7898 16.86 24.3486 17.5351 24.6862C18.24 25.0386 19.1789 25.2421 20.1889 25.2421C21.199 25.2421 22.1378 25.0386 22.8427 24.6862C23.5178 24.3486 24.1254 23.7898 24.1254 23.0238C24.1254 22.5781 23.9126 22.1958 23.615 21.8988C23.3194 21.6039 22.9191 21.3694 22.4696 21.1957L22.2422 21.1079C22.4525 20.765 22.6528 20.4012 22.8192 20.033C23.0738 19.4696 23.2662 18.8583 23.2662 18.2773C23.2662 16.5836 21.8825 15.2214 20.1889 15.2214C18.4953 15.2214 17.1116 16.5836 17.1116 18.2773C17.1116 18.8583 17.3041 19.4696 17.5587 20.033ZM22.2676 22.8201C22.2675 22.8201 22.2672 22.8192 22.2669 22.8173C22.2676 22.8192 22.2677 22.8201 22.2676 22.8201ZM22.2669 22.8007C22.2672 22.7989 22.2675 22.798 22.2676 22.798C22.2677 22.798 22.2675 22.7989 22.2669 22.8007ZM19.935 18.0448C20.0023 17.9775 20.0937 17.9396 20.1889 17.9396C20.2842 17.9396 20.3755 17.9775 20.4429 18.0448C20.5102 18.1122 20.548 18.2035 20.548 18.2988C20.548 18.394 20.5102 18.4853 20.4429 18.5527C20.3755 18.62 20.2842 18.6579 20.1889 18.6579C20.0937 18.6579 20.0023 18.62 19.935 18.5527C19.8677 18.4853 19.8298 18.394 19.8298 18.2988C19.8298 18.2035 19.8677 18.1122 19.935 18.0448Z" fill="#4285F4" stroke="white"/>
</g>
<path d="M36.4035 12.4601C36.4035 10.8281 36.7795 9.36406 37.5315 8.06806C38.2995 6.77206 39.3315 5.76406 40.6275 5.04406C41.9395 4.30806 43.3715 3.94006 44.9235 3.94006C46.6995 3.94006 48.2755 4.38006 49.6515 5.26006C51.0435 6.12406 52.0515 7.35606 52.6755 8.95606H49.3875C48.9555 8.07606 48.3555 7.42006 47.5875 6.98806C46.8195 6.55606 45.9315 6.34006 44.9235 6.34006C43.8195 6.34006 42.8355 6.58806 41.9715 7.08406C41.1075 7.58006 40.4275 8.29206 39.9315 9.22006C39.4515 10.1481 39.2115 11.2281 39.2115 12.4601C39.2115 13.6921 39.4515 14.7721 39.9315 15.7001C40.4275 16.6281 41.1075 17.3481 41.9715 17.8601C42.8355 18.3561 43.8195 18.6041 44.9235 18.6041C45.9315 18.6041 46.8195 18.3881 47.5875 17.9561C48.3555 17.5241 48.9555 16.8681 49.3875 15.9881H52.6755C52.0515 17.5881 51.0435 18.8201 49.6515 19.6841C48.2755 20.5481 46.6995 20.9801 44.9235 20.9801C43.3555 20.9801 41.9235 20.6201 40.6275 19.9001C39.3315 19.1641 38.2995 18.1481 37.5315 16.8521C36.7795 15.5561 36.4035 14.0921 36.4035 12.4601ZM54.636 14.1641C54.636 12.8361 54.908 11.6601 55.452 10.6361C56.012 9.61206 56.764 8.82006 57.708 8.26006C58.668 7.68406 59.724 7.39606 60.876 7.39606C61.916 7.39606 62.82 7.60406 63.588 8.02006C64.372 8.42006 64.996 8.92406 65.46 9.53206V7.61206H68.22V20.8361H65.46V18.8681C64.996 19.4921 64.364 20.0121 63.564 20.4281C62.764 20.8441 61.852 21.0521 60.828 21.0521C59.692 21.0521 58.652 20.7641 57.708 20.1881C56.764 19.5961 56.012 18.7801 55.452 17.7401C54.908 16.6841 54.636 15.4921 54.636 14.1641ZM65.46 14.2121C65.46 13.3001 65.268 12.5081 64.884 11.8361C64.516 11.1641 64.028 10.6521 63.42 10.3001C62.812 9.94806 62.156 9.77206 61.452 9.77206C60.748 9.77206 60.092 9.94806 59.484 10.3001C58.876 10.6361 58.38 11.1401 57.996 11.8121C57.628 12.4681 57.444 13.2521 57.444 14.1641C57.444 15.0761 57.628 15.8761 57.996 16.5641C58.38 17.2521 58.876 17.7801 59.484 18.1481C60.108 18.5001 60.764 18.6761 61.452 18.6761C62.156 18.6761 62.812 18.5001 63.42 18.1481C64.028 17.7961 64.516 17.2841 64.884 16.6121C65.268 15.9241 65.46 15.1241 65.46 14.2121ZM74.2196 9.53206C74.6196 8.86006 75.1476 8.34006 75.8036 7.97206C76.4756 7.58806 77.2676 7.39606 78.1796 7.39606V10.2281H77.4836C76.4116 10.2281 75.5956 10.5001 75.0356 11.0441C74.4916 11.5881 74.2196 12.5321 74.2196 13.8761V20.8361H71.4836V7.61206H74.2196V9.53206ZM81.7565 5.86006C81.2605 5.86006 80.8445 5.69206 80.5085 5.35606C80.1725 5.02006 80.0045 4.60406 80.0045 4.10806C80.0045 3.61206 80.1725 3.19606 80.5085 2.86006C80.8445 2.52406 81.2605 2.35606 81.7565 2.35606C82.2365 2.35606 82.6445 2.52406 82.9805 2.86006C83.3165 3.19606 83.4845 3.61206 83.4845 4.10806C83.4845 4.60406 83.3165 5.02006 82.9805 5.35606C82.6445 5.69206 82.2365 5.86006 81.7565 5.86006ZM83.1005 7.61206V20.8361H80.3645V7.61206H83.1005ZM89.0987 9.53206C89.4987 8.86006 90.0267 8.34006 90.6827 7.97206C91.3547 7.58806 92.1467 7.39606 93.0587 7.39606V10.2281H92.3627C91.2907 10.2281 90.4747 10.5001 89.9147 11.0441C89.3707 11.5881 89.0987 12.5321 89.0987 13.8761V20.8361H86.3627V7.61206H89.0987V9.53206ZM96.6356 5.86006C96.1396 5.86006 95.7236 5.69206 95.3876 5.35606C95.0516 5.02006 94.8836 4.60406 94.8836 4.10806C94.8836 3.61206 95.0516 3.19606 95.3876 2.86006C95.7236 2.52406 96.1396 2.35606 96.6356 2.35606C97.1156 2.35606 97.5236 2.52406 97.8596 2.86006C98.1956 3.19606 98.3636 3.61206 98.3636 4.10806C98.3636 4.60406 98.1956 5.02006 97.8596 5.35606C97.5236 5.69206 97.1156 5.86006 96.6356 5.86006ZM97.9796 7.61206V20.8361H95.2436V7.61206H97.9796ZM104.434 9.84406V17.1641C104.434 17.6601 104.546 18.0201 104.77 18.2441C105.01 18.4521 105.41 18.5561 105.97 18.5561H107.65V20.8361H105.49C104.258 20.8361 103.314 20.5481 102.658 19.9721C102.002 19.3961 101.674 18.4601 101.674 17.1641V9.84406H100.114V7.61206H101.674V4.32406H104.434V7.61206H107.65V9.84406H104.434ZM121.817 7.61206V20.8361H119.081V19.2761C118.649 19.8201 118.081 20.2521 117.377 20.5721C116.689 20.8761 115.953 21.0281 115.169 21.0281C114.129 21.0281 113.193 20.8121 112.361 20.3801C111.545 19.9481 110.897 19.3081 110.417 18.4601C109.953 17.6121 109.721 16.5881 109.721 15.3881V7.61206H112.433V14.9801C112.433 16.1641 112.729 17.0761 113.321 17.7161C113.913 18.3401 114.721 18.6521 115.745 18.6521C116.769 18.6521 117.577 18.3401 118.169 17.7161C118.777 17.0761 119.081 16.1641 119.081 14.9801V7.61206H121.817ZM127.833 9.53206C128.233 8.86006 128.761 8.34006 129.417 7.97206C130.089 7.58806 130.881 7.39606 131.793 7.39606V10.2281H131.097C130.025 10.2281 129.209 10.5001 128.649 11.0441C128.105 11.5881 127.833 12.5321 127.833 13.8761V20.8361H125.097V7.61206H127.833V9.53206Z" fill="#027DC1"/>
<defs>
<clipPath id="clip0_246_441">
<rect width="10.3093" height="10.3093" fill="white" transform="translate(15.2061 14.6906)"/>
</clipPath>
</defs>
</svg>
