<svg width="17" height="19" viewBox="0 0 17 19" fill="none" xmlns="http://www.w3.org/2000/svg">
<path d="M7.24283 18.2933L0.289729 10.3364C0.184379 10.2158 0.10958 10.0852 0.0653333 9.94456C0.0210863 9.80391 -0.000685873 9.65321 1.64611e-05 9.49246C1.64611e-05 9.33172 0.0221402 9.18102 0.0663872 9.04037C0.110634 8.89972 0.185081 8.76911 0.289729 8.64855L7.24283 0.691655C7.43597 0.47063 7.67758 0.355296 7.96764 0.345651C8.2577 0.336006 8.50773 0.451341 8.71773 0.691655C8.92843 0.91268 9.03835 1.18916 9.04748 1.5211C9.05661 1.85304 8.95547 2.13917 8.74407 2.37948L3.58192 8.28687H15.3548C15.6533 8.28687 15.9037 8.40261 16.1059 8.63408C16.3082 8.86556 16.409 9.15168 16.4083 9.49246C16.4083 9.83405 16.3075 10.1206 16.1059 10.3521C15.9044 10.5835 15.654 10.6989 15.3548 10.6981H3.58192L8.74407 16.6054C8.93721 16.8265 9.03835 17.1078 9.04748 17.4494C9.05661 17.7909 8.95547 18.0722 8.74407 18.2933C8.55093 18.5344 8.30511 18.655 8.00662 18.655C7.70813 18.655 7.45353 18.5344 7.24283 18.2933Z" fill="#027DC1"/>
</svg>
