<svg width="59" height="17" viewBox="0 0 59 17" fill="none" xmlns="http://www.w3.org/2000/svg">
<path d="M10.6282 6.58509C10.6282 7.29176 10.4615 7.95843 10.1282 8.58509C9.79487 9.21176 9.26154 9.72509 8.5282 10.1251C7.79487 10.5118 6.85487 10.7051 5.7082 10.7051H3.1882V16.3451H0.908203V2.44509H5.7082C6.77487 2.44509 7.67487 2.63176 8.4082 3.00509C9.15487 3.36509 9.7082 3.85843 10.0682 4.48509C10.4415 5.11176 10.6282 5.81176 10.6282 6.58509ZM5.7082 8.84509C6.57487 8.84509 7.22154 8.65176 7.6482 8.26509C8.07487 7.86509 8.2882 7.30509 8.2882 6.58509C8.2882 5.06509 7.4282 4.30509 5.7082 4.30509H3.1882V8.84509H5.7082ZM14.7527 6.92509C15.0861 6.36509 15.5261 5.93176 16.0727 5.62509C16.6327 5.30509 17.2927 5.14509 18.0527 5.14509V7.50509H17.4727C16.5794 7.50509 15.8994 7.73176 15.4327 8.18509C14.9794 8.63843 14.7527 9.42509 14.7527 10.5451V16.3451H12.4727V5.32509H14.7527V6.92509ZM24.5985 16.5251C23.5585 16.5251 22.6185 16.2918 21.7785 15.8251C20.9385 15.3451 20.2785 14.6784 19.7985 13.8251C19.3185 12.9584 19.0785 11.9584 19.0785 10.8251C19.0785 9.70509 19.3252 8.71176 19.8185 7.84509C20.3118 6.97843 20.9852 6.31176 21.8385 5.84509C22.6918 5.37843 23.6452 5.14509 24.6985 5.14509C25.7518 5.14509 26.7052 5.37843 27.5585 5.84509C28.4118 6.31176 29.0852 6.97843 29.5785 7.84509C30.0718 8.71176 30.3185 9.70509 30.3185 10.8251C30.3185 11.9451 30.0652 12.9384 29.5585 13.8051C29.0519 14.6718 28.3585 15.3451 27.4785 15.8251C26.6118 16.2918 25.6518 16.5251 24.5985 16.5251ZM24.5985 14.5451C25.1852 14.5451 25.7318 14.4051 26.2385 14.1251C26.7585 13.8451 27.1785 13.4251 27.4985 12.8651C27.8185 12.3051 27.9785 11.6251 27.9785 10.8251C27.9785 10.0251 27.8252 9.35176 27.5185 8.80509C27.2118 8.24509 26.8052 7.82509 26.2985 7.54509C25.7918 7.26509 25.2452 7.12509 24.6585 7.12509C24.0718 7.12509 23.5252 7.26509 23.0185 7.54509C22.5252 7.82509 22.1318 8.24509 21.8385 8.80509C21.5452 9.35176 21.3985 10.0251 21.3985 10.8251C21.3985 12.0118 21.6985 12.9318 22.2985 13.5851C22.9118 14.2251 23.6785 14.5451 24.5985 14.5451ZM36.8624 7.18509H34.8224V16.3451H32.5224V7.18509H31.2224V5.32509H32.5224V4.54509C32.5224 3.27843 32.8558 2.35842 33.5224 1.78509C34.2024 1.19843 35.2624 0.905092 36.7024 0.905092V2.80509C36.0091 2.80509 35.5224 2.93843 35.2424 3.20509C34.9624 3.45843 34.8224 3.90509 34.8224 4.54509V5.32509H36.8624V7.18509ZM39.713 3.86509C39.2997 3.86509 38.953 3.72509 38.673 3.44509C38.393 3.16509 38.253 2.81843 38.253 2.40509C38.253 1.99176 38.393 1.64509 38.673 1.36509C38.953 1.08509 39.2997 0.945092 39.713 0.945092C40.113 0.945092 40.453 1.08509 40.733 1.36509C41.013 1.64509 41.153 1.99176 41.153 2.40509C41.153 2.81843 41.013 3.16509 40.733 3.44509C40.453 3.72509 40.113 3.86509 39.713 3.86509ZM40.833 5.32509V16.3451H38.553V5.32509H40.833ZM45.7765 1.54509V16.3451H43.4965V1.54509H45.7765ZM58.5399 10.5651C58.5399 10.9784 58.5133 11.3518 58.4599 11.6851H50.0399C50.1066 12.5651 50.4333 13.2718 51.0199 13.8051C51.6066 14.3384 52.3266 14.6051 53.1799 14.6051C54.4066 14.6051 55.2733 14.0918 55.7799 13.0651H58.2399C57.9066 14.0784 57.2999 14.9118 56.4199 15.5651C55.5533 16.2051 54.4733 16.5251 53.1799 16.5251C52.1266 16.5251 51.1799 16.2918 50.3399 15.8251C49.5133 15.3451 48.8599 14.6784 48.3799 13.8251C47.9133 12.9584 47.6799 11.9584 47.6799 10.8251C47.6799 9.69176 47.9066 8.69843 48.3599 7.84509C48.8266 6.97843 49.4733 6.31176 50.2999 5.84509C51.1399 5.37843 52.0999 5.14509 53.1799 5.14509C54.2199 5.14509 55.1466 5.37176 55.9599 5.82509C56.7733 6.27843 57.4066 6.91843 57.8599 7.74509C58.3133 8.55843 58.5399 9.49843 58.5399 10.5651ZM56.1599 9.84509C56.1466 9.00509 55.8466 8.33176 55.2599 7.82509C54.6733 7.31843 53.9466 7.06509 53.0799 7.06509C52.2933 7.06509 51.6199 7.31843 51.0599 7.82509C50.4999 8.31843 50.1666 8.99176 50.0599 9.84509H56.1599Z" fill="#027DC1"/>
</svg>
