<svg width="30" height="30" viewBox="0 0 30 30" fill="none" xmlns="http://www.w3.org/2000/svg">
<path d="M20.9375 4.45V2.5C20.9375 1.9875 20.5125 1.5625 20 1.5625C19.4875 1.5625 19.0625 1.9875 19.0625 2.5V4.375H10.9375V2.5C10.9375 1.9875 10.5125 1.5625 10 1.5625C9.4875 1.5625 9.0625 1.9875 9.0625 2.5V4.45C5.6875 4.7625 4.05 6.775 3.8 9.7625C3.775 10.125 4.075 10.425 4.425 10.425H25.575C25.9375 10.425 26.2375 10.1125 26.2 9.7625C25.95 6.775 24.3125 4.7625 20.9375 4.45ZM25 12.3H5C4.3125 12.3 3.75 12.8625 3.75 13.55V21.25C3.75 25 5.625 27.5 10 27.5H16.1625C17.025 27.5 17.625 26.6625 17.35 25.85C17.1 25.125 16.8875 24.325 16.8875 23.75C16.8875 19.9625 19.975 16.875 23.7625 16.875C24.125 16.875 24.4875 16.9 24.8375 16.9625C25.5875 17.075 26.2625 16.4875 26.2625 15.7375V13.5625C26.2592 13.2287 26.1252 12.9094 25.8891 12.6734C25.6531 12.4373 25.3338 12.3033 25 12.3ZM11.5125 22.1375C11.3875 22.25 11.25 22.3375 11.1 22.4C10.95 22.4625 10.7875 22.5 10.625 22.5C10.4625 22.5 10.3 22.4625 10.15 22.4C10 22.3375 9.8625 22.25 9.7375 22.1375C9.5125 21.9 9.375 21.575 9.375 21.25C9.375 21.175 9.3875 21.0875 9.4 21.0125C9.4125 20.925 9.4375 20.85 9.475 20.775C9.5 20.7 9.5375 20.625 9.5875 20.55C9.625 20.4875 9.6875 20.425 9.7375 20.3625C9.8625 20.25 10 20.1625 10.15 20.1C10.4543 19.975 10.7957 19.975 11.1 20.1C11.25 20.1625 11.3875 20.25 11.5125 20.3625C11.5625 20.425 11.625 20.4875 11.6625 20.55C11.7125 20.625 11.75 20.7 11.775 20.775C11.8125 20.85 11.8375 20.925 11.85 21.0125C11.8625 21.0875 11.875 21.175 11.875 21.25C11.875 21.575 11.7375 21.9 11.5125 22.1375ZM11.5125 17.7625C11.3875 17.875 11.25 17.9625 11.1 18.025C10.95 18.0875 10.7875 18.125 10.625 18.125C10.4625 18.125 10.3 18.0875 10.15 18.025C9.9875 17.9625 9.8625 17.875 9.7375 17.7625C9.5125 17.525 9.375 17.2 9.375 16.875C9.375 16.55 9.5125 16.225 9.7375 15.9875C9.8625 15.875 10 15.7875 10.15 15.725C10.4543 15.6 10.7957 15.6 11.1 15.725C11.25 15.7875 11.3875 15.875 11.5125 15.9875C11.5625 16.05 11.625 16.1125 11.6625 16.175C11.7125 16.25 11.75 16.325 11.775 16.4C11.8125 16.475 11.8375 16.55 11.85 16.625C11.8625 16.7125 11.875 16.8 11.875 16.875C11.875 17.2 11.7375 17.525 11.5125 17.7625ZM15.8875 17.7625C15.65 17.9875 15.3375 18.125 15 18.125C14.8375 18.125 14.675 18.0875 14.525 18.025C14.3625 17.9625 14.2375 17.875 14.1125 17.7625C13.8875 17.525 13.75 17.2 13.75 16.875C13.75 16.8 13.7625 16.7125 13.775 16.625C13.7875 16.55 13.8125 16.475 13.85 16.4C13.875 16.325 13.9125 16.25 13.9625 16.175L14.1125 15.9875C14.575 15.525 15.4125 15.525 15.8875 15.9875L16.0375 16.175C16.0875 16.25 16.125 16.325 16.15 16.4C16.1875 16.475 16.2125 16.55 16.225 16.625C16.2375 16.7125 16.25 16.8 16.25 16.875C16.25 17.2 16.1125 17.525 15.8875 17.7625Z" fill="#027DC1"/>
<path d="M27.2875 20.2125C26.3484 19.2761 25.0762 18.7502 23.75 18.7502C22.4238 18.7502 21.1516 19.2761 20.2125 20.2125C19.2761 21.1517 18.7502 22.4238 18.7502 23.75C18.7502 25.0763 19.2761 26.3484 20.2125 27.2875C21.1516 28.224 22.4238 28.7498 23.75 28.7498C25.0762 28.7498 26.3484 28.224 27.2875 27.2875C28.2239 26.3484 28.7498 25.0763 28.7498 23.75C28.7498 22.4238 28.2239 21.1517 27.2875 20.2125ZM26.3375 24.45C26.175 24.625 25.9375 24.725 25.675 24.725H24.75V25.7C24.75 25.9625 24.65 26.1875 24.475 26.3625C24.3 26.5375 24.075 26.6375 23.8125 26.6375C23.3 26.6375 22.875 26.2125 22.875 25.7V24.725H21.9375C21.6889 24.725 21.4504 24.6263 21.2746 24.4505C21.0988 24.2746 21 24.0362 21 23.7875C21 23.5389 21.0988 23.3004 21.2746 23.1246C21.4504 22.9488 21.6889 22.85 21.9375 22.85H22.875V21.9625C22.875 21.7139 22.9738 21.4754 23.1496 21.2996C23.3254 21.1238 23.5639 21.025 23.8125 21.025C24.0611 21.025 24.2996 21.1238 24.4754 21.2996C24.6512 21.4754 24.75 21.7139 24.75 21.9625V22.85H25.675C26.2 22.85 26.6125 23.275 26.6125 23.7875C26.6125 24.05 26.5125 24.2875 26.3375 24.45Z" fill="#027DC1"/>
</svg>
