<svg width="26" height="26" viewBox="0 0 26 26" fill="none" xmlns="http://www.w3.org/2000/svg">
    <path d="M23.05 6.52755L15.85 1.49005C13.8875 0.115047 10.875 0.190047 8.9875 1.65255L2.725 6.54005C1.475 7.51505 0.487503 9.51505 0.487503 11.09V19.715C0.487503 22.9025 3.075 25.5025 6.2625 25.5025H19.7375C22.925 25.5025 25.5125 22.915 25.5125 19.7275V11.2525C25.5125 9.56505 24.425 7.49005 23.05 6.52755ZM13.9375 20.5025C13.9375 21.015 13.5125 21.44 13 21.44C12.4875 21.44 12.0625 21.015 12.0625 20.5025V16.7525C12.0625 16.24 12.4875 15.815 13 15.815C13.5125 15.815 13.9375 16.24 13.9375 16.7525V20.5025Z" fill="#027DC1"/>
</svg>
