<svg width="30" height="30" viewBox="0 0 30 30" fill="none" xmlns="http://www.w3.org/2000/svg">
<path d="M21.6875 11.3125L18.7625 20.7375C18.0625 22.975 14.925 23.0125 14.1875 20.7875L13.3125 18.2C13.075 17.4875 12.5125 16.9125 11.8 16.6875L9.2 15.8125C6.9875 15.075 7.025 11.9125 9.2625 11.2375L18.6875 8.29998C20.5375 7.73748 22.275 9.47498 21.6875 11.3125Z" stroke="#027DC1" stroke-width="1.5" stroke-linecap="round" stroke-linejoin="round"/>
<path d="M11.25 27.5H18.75C25 27.5 27.5 25 27.5 18.75V11.25C27.5 5 25 2.5 18.75 2.5H11.25C5 2.5 2.5 5 2.5 11.25V18.75C2.5 25 5 27.5 11.25 27.5Z" stroke="#027DC1" stroke-width="1.5" stroke-linecap="round" stroke-linejoin="round"/>
</svg>
