<svg width="89" height="50" viewBox="0 0 89 50" fill="none" xmlns="http://www.w3.org/2000/svg">
<rect x="1" y="1" width="87" height="48" rx="8" fill="white" stroke="black" stroke-opacity="0.1"/>
<path d="M59 24.5761C59 17.6288 52.9577 12 45.5 12C38.0423 12 32 17.6288 32 24.5761C32 30.8529 36.9368 36.0558 43.3906 37V28.2115H39.9612V24.5761H43.3906V21.8053C43.3906 18.6537 45.4047 16.9128 48.4896 16.9128C49.967 16.9128 51.5119 17.1582 51.5119 17.1582V20.2515H49.8091C48.1325 20.2515 47.6094 21.2211 47.6094 22.2155V24.5761H51.3534L50.7547 28.2115H47.6094V37C54.0632 36.0558 59 30.8529 59 24.5761Z" fill="#376AED"/>
</svg>
