<svg width="90" height="50" viewBox="0 0 90 50" fill="none" xmlns="http://www.w3.org/2000/svg">
<rect x="1" y="1" width="88" height="48" rx="8" fill="white" stroke="black" stroke-opacity="0.1"/>
<path d="M58.0741 22.3886H57.0001V22.3333H45.0001V27.6666H52.5354C51.4361 30.7713 48.4821 33 45.0001 33C40.5821 33 37.0001 29.418 37.0001 25C37.0001 20.582 40.5821 17 45.0001 17C47.0394 17 48.8947 17.7693 50.3074 19.026L54.0787 15.2546C51.6974 13.0353 48.5121 11.6666 45.0001 11.6666C37.6367 11.6666 31.6667 17.6366 31.6667 25C31.6667 32.3633 37.6367 38.3333 45.0001 38.3333C52.3634 38.3333 58.3334 32.3633 58.3334 25C58.3334 24.106 58.2414 23.2333 58.0741 22.3886Z" fill="#FFC107"/>
<path d="M33.2041 18.794L37.5848 22.0066C38.7701 19.072 41.6408 17 45.0001 17C47.0394 17 48.8948 17.7693 50.3074 19.026L54.0788 15.2546C51.6974 13.0353 48.5121 11.6666 45.0001 11.6666C39.8788 11.6666 35.4374 14.558 33.2041 18.794Z" fill="#FF3D00"/>
<path d="M44.9999 38.3333C48.4439 38.3333 51.5732 37.0153 53.9392 34.872L49.8125 31.38C48.4289 32.4322 46.7382 33.0013 44.9999 33C41.5319 33 38.5872 30.7886 37.4779 27.7026L33.1299 31.0526C35.3365 35.3706 39.8179 38.3333 44.9999 38.3333Z" fill="#4CAF50"/>
<path d="M58.074 22.3887H57V22.3334H45V27.6667H52.5353C52.0095 29.1443 51.0622 30.4355 49.8107 31.3807L49.8127 31.3794L53.9393 34.8714C53.6473 35.1367 58.3333 31.6667 58.3333 25C58.3333 24.106 58.2413 23.2334 58.074 22.3887Z" fill="#1976D2"/>
</svg>
