<svg width="90" height="50" viewBox="0 0 90 50" fill="none" xmlns="http://www.w3.org/2000/svg">
<rect x="1" y="1" width="88" height="48" rx="8" fill="white" stroke="black" stroke-opacity="0.1"/>
<path d="M39.4539 37.5022C38.9198 37.1613 38.4465 36.7401 38.0521 36.2548C37.6183 35.7538 37.2163 35.2282 36.8484 34.6809C35.9851 33.4674 35.308 32.1412 34.838 30.7429C34.2734 29.1187 34 27.5618 34 26.0391C34 24.3385 34.3835 22.854 35.1334 21.6066C35.6894 20.6316 36.5068 19.8168 37.501 19.2465C38.4646 18.6723 39.5717 18.3581 40.7058 18.337C41.1028 18.337 41.5303 18.3922 41.984 18.4978C42.3099 18.5863 42.7069 18.726 43.1919 18.8998C43.809 19.128 44.1484 19.2677 44.2636 19.3018C44.625 19.4285 44.9289 19.4837 45.1676 19.4837C45.3487 19.4837 45.6044 19.4285 45.8947 19.344C46.0581 19.2888 46.3662 19.1913 46.8072 19.0102C47.244 18.8575 47.5877 18.7268 47.8611 18.6293C48.2801 18.5108 48.6856 18.4011 49.047 18.3459C49.4755 18.2811 49.9104 18.2639 50.343 18.2947C51.0926 18.3417 51.831 18.4942 52.5345 18.7471C53.6849 19.1913 54.6152 19.8849 55.3076 20.8708C55.0149 21.0438 54.7402 21.2435 54.4873 21.4669C53.9368 21.9351 53.4679 22.4848 53.0983 23.0952C52.6152 23.9293 52.3647 24.8689 52.3711 25.8231C52.3889 26.995 52.7021 28.0272 53.3192 28.9197C53.7729 29.5812 54.3625 30.1468 55.0519 30.5821C55.4049 30.8103 55.7088 30.967 56 31.0726C55.8637 31.4787 55.7181 31.8717 55.5463 32.2616C55.1566 33.1357 54.6842 33.9738 54.1352 34.7653C53.6459 35.4467 53.2625 35.9543 52.9713 36.2921C52.5176 36.8078 52.0808 37.2017 51.6398 37.4762C51.1548 37.7848 50.5817 37.9496 49.9993 37.9496C49.6049 37.9642 49.2106 37.9184 48.8312 37.814C48.5053 37.7084 48.1828 37.5939 47.8653 37.4632C47.5353 37.3178 47.195 37.1948 46.847 37.0953C45.9867 36.8833 45.0848 36.8819 44.2238 37.0912C43.8708 37.1887 43.5314 37.3024 43.1962 37.4421C42.7247 37.6321 42.4115 37.7596 42.2303 37.814C41.8689 37.9155 41.4939 37.9789 41.1147 38C40.528 38 39.9812 37.8392 39.4395 37.5135L39.4539 37.5022ZM47.1907 17.5119C46.4238 17.8797 45.6916 18.0365 44.9644 17.9853C44.8502 17.2828 44.9644 16.5641 45.2683 15.7772C45.527 15.1105 45.9093 14.4942 46.3967 13.958C46.9114 13.3936 47.5359 12.931 48.2352 12.5961C48.9801 12.2282 49.6903 12.0292 50.3692 12C50.4573 12.7358 50.3692 13.4594 50.0873 14.2414C49.8265 14.9328 49.4449 15.5765 48.959 16.1451C48.463 16.7102 47.8543 17.1747 47.1687 17.511L47.1907 17.5119Z" fill="#D2D2D2"/>
</svg>
