<svg width="205" height="49" viewBox="0 0 205 49" fill="none" xmlns="http://www.w3.org/2000/svg">
    <path d="M43.75 0.400024C44.0815 0.400024 44.3995 0.531721 44.6339 0.766141C44.8683 1.00056 45 1.3185 45 1.65002V26.3C43.4 25.725 41.725 25.4 40 25.4C36.15 25.4 32.65 26.9 30 29.3V10.65L15 5.40002V35.15L25.1 38.65C25 39.25 25 39.825 25 40.4C25 41.55 25.15 42.7 25.4 43.8L15 40.15L1.65 45.325C1.475 45.4 1.375 45.4 1.25 45.4C0.918479 45.4 0.600537 45.2683 0.366117 45.0339C0.131696 44.7995 0 44.4815 0 44.15V6.35002C0 5.77502 0.4 5.32502 0.875 5.15002L15 0.400024L30 5.65002L43.325 0.400024" fill="#4285F4"/>
    <g clip-path="url(#clip0_609_440)">
        <path d="M39.1499 44.375L38.7802 44.7116L39.1499 45.1177L39.5196 44.7116L39.1499 44.375ZM39.1499 44.375C39.5196 44.7116 39.5197 44.7115 39.5198 44.7114L39.5201 44.7111L39.521 44.7101L39.5243 44.7064L39.5365 44.693L39.5823 44.6418C39.622 44.5971 39.6798 44.5317 39.753 44.4475C39.8994 44.2789 40.1076 44.0347 40.3572 43.7297C40.8559 43.1202 41.5216 42.2654 42.1883 41.2853C42.8541 40.3066 43.5271 39.1939 44.0352 38.0692C44.5404 36.9512 44.8999 35.7839 44.8999 34.7062C44.8999 31.547 42.3179 29 39.1499 29C35.9819 29 33.3999 31.547 33.3999 34.7062C33.3999 35.7839 33.7594 36.9512 34.2646 38.0692C34.7727 39.1939 35.4457 40.3066 36.1115 41.2853C36.7782 42.2654 37.4439 43.1202 37.9426 43.7297C38.1922 44.0347 38.4004 44.2789 38.5468 44.4475C38.62 44.5317 38.6778 44.5971 38.7175 44.6418L38.7633 44.693L38.7755 44.7064L38.7788 44.7101L38.7797 44.7111L38.78 44.7114C38.7801 44.7115 38.7802 44.7116 39.1499 44.375ZM35.2801 41.3136L35.0554 40.9941L34.691 41.1348C33.8205 41.4711 33.0739 41.9149 32.5372 42.4504C31.9985 42.9879 31.6499 43.6419 31.6499 44.375C31.6499 45.6332 32.6561 46.6374 33.976 47.2974C35.3257 47.9722 37.1554 48.375 39.1499 48.375C41.1444 48.375 42.9742 47.9722 44.3238 47.2974C45.6437 46.6374 46.6499 45.6332 46.6499 44.375C46.6499 43.6419 46.3013 42.9879 45.7626 42.4504C45.2259 41.9149 44.4793 41.4711 43.6088 41.1348L43.2444 40.9941L43.0197 41.3136L42.4597 42.1099L42.1013 42.6194L42.6763 42.859C43.1131 43.041 43.434 43.2445 43.6381 43.4452C43.8402 43.644 43.8999 43.8098 43.8999 43.9375C43.8999 44.0649 43.8399 44.2318 43.6362 44.4323C43.4307 44.6345 43.1079 44.8396 42.6687 45.0225C41.7927 45.3874 40.5484 45.625 39.1499 45.625C37.7514 45.625 36.5071 45.3874 35.6311 45.0225C35.1919 44.8396 34.8691 44.6345 34.6636 44.4323C34.4599 44.2318 34.3999 44.0649 34.3999 43.9375C34.3999 43.8098 34.4596 43.644 34.6617 43.4452C34.8658 43.2445 35.1868 43.041 35.6235 42.859L36.1985 42.6194L35.8401 42.1099L35.2801 41.3136Z" fill="#4285F4" stroke="white"/>
    </g>
    <circle cx="39" cy="34.4" r="2" fill="white"/>
    <path d="M98.6962 19.4H97.8269C97.665 18.5307 97.3496 17.6443 96.8809 16.7409C96.4121 15.8375 95.79 15.0023 95.0144 14.2353C94.2388 13.4682 93.3226 12.8503 92.2658 12.3816C91.209 11.9128 90.0115 11.6784 88.6735 11.6784C86.8837 11.6784 85.226 12.1685 83.7005 13.1486C82.1834 14.1202 80.9604 15.5478 80.0314 17.4313C79.111 19.3063 78.6507 21.5989 78.6507 24.3091C78.6507 27.0534 79.111 29.3631 80.0314 31.2381C80.9604 33.1131 82.1834 34.5321 83.7005 35.4952C85.226 36.4583 86.8837 36.9398 88.6735 36.9398C90.0115 36.9398 91.209 36.7097 92.2658 36.2495C93.3226 35.7807 94.2388 35.1671 95.0144 34.4085C95.79 33.6415 96.4121 32.8063 96.8809 31.9029C97.3496 30.9909 97.665 30.096 97.8269 29.2182H98.6962C98.5343 30.1387 98.2104 31.0975 97.7246 32.0946C97.2388 33.0833 96.5826 34.008 95.7559 34.8688C94.9292 35.7296 93.9277 36.4284 92.7516 36.9654C91.5755 37.4938 90.2161 37.758 88.6735 37.758C86.5257 37.758 84.638 37.1955 83.0101 36.0705C81.3823 34.9455 80.1124 33.373 79.2005 31.3531C78.2885 29.3333 77.8326 26.9853 77.8326 24.3091C77.8326 21.633 78.2885 19.285 79.2005 17.2651C80.1124 15.2452 81.3823 13.6728 83.0101 12.5478C84.638 11.4228 86.5257 10.8603 88.6735 10.8603C90.2161 10.8603 91.5755 11.1245 92.7516 11.6529C93.9277 12.1813 94.9292 12.8759 95.7559 13.7367C96.5826 14.5889 97.2388 15.5137 97.7246 16.5108C98.2104 17.4995 98.5343 18.4625 98.6962 19.4ZM109.627 37.8091C108.553 37.8091 107.56 37.5875 106.648 37.1443C105.744 36.7012 105.016 36.0534 104.462 35.2012C103.916 34.3489 103.644 33.3091 103.644 32.0818C103.644 31.4171 103.75 30.7949 103.963 30.2154C104.176 29.6273 104.551 29.0946 105.088 28.6174C105.625 28.1401 106.375 27.731 107.338 27.3901C108.31 27.0492 109.55 26.7892 111.058 26.6103C111.962 26.508 112.814 26.3887 113.615 26.2523C114.416 26.1159 115.068 25.9114 115.571 25.6387C116.074 25.3659 116.325 24.9739 116.325 24.4625V23.2864C116.325 21.7779 115.818 20.5676 114.804 19.6557C113.79 18.7353 112.439 18.275 110.752 18.275C109.371 18.275 108.165 18.5818 107.134 19.1955C106.102 19.8006 105.382 20.6529 104.973 21.7523L104.206 21.4455C104.513 20.6273 104.986 19.9199 105.625 19.3233C106.264 18.7267 107.023 18.2665 107.901 17.9426C108.779 17.6188 109.729 17.4568 110.752 17.4568C111.749 17.4568 112.639 17.606 113.423 17.9043C114.216 18.1941 114.889 18.6031 115.443 19.1316C115.997 19.6514 116.419 20.2651 116.709 20.9725C116.999 21.6799 117.144 22.4512 117.144 23.2864V37.4H116.325V33.4114H116.223C115.814 34.2978 115.281 35.0733 114.625 35.7381C113.977 36.3943 113.227 36.9057 112.375 37.2722C111.531 37.6301 110.615 37.8091 109.627 37.8091ZM109.627 36.9909C110.871 36.9909 112 36.6585 113.014 35.9938C114.029 35.3205 114.834 34.3872 115.431 33.1941C116.027 31.9924 116.325 30.5989 116.325 29.0137V26.0478C116.087 26.2267 115.797 26.3844 115.456 26.5208C115.124 26.6571 114.744 26.7807 114.318 26.8915C113.901 26.9938 113.445 27.0833 112.95 27.16C112.456 27.2367 111.928 27.3091 111.365 27.3773C109.61 27.5818 108.229 27.8929 107.223 28.3105C106.218 28.7281 105.506 29.2523 105.088 29.883C104.671 30.5137 104.462 31.2466 104.462 32.0818C104.462 33.5648 104.956 34.7537 105.945 35.6486C106.942 36.5435 108.169 36.9909 109.627 36.9909ZM124.194 37.4V17.7637H125.012V20.883H125.115C125.575 19.8603 126.329 19.0421 127.377 18.4284C128.434 17.8148 129.64 17.508 130.995 17.508C131.097 17.508 131.166 17.508 131.2 17.508C131.234 17.508 131.302 17.508 131.404 17.508V18.3262C131.302 18.3262 131.234 18.3262 131.2 18.3262C131.166 18.3262 131.097 18.3262 130.995 18.3262C129.836 18.3262 128.805 18.5776 127.901 19.0804C127.007 19.5833 126.299 20.2779 125.779 21.1642C125.268 22.0506 125.012 23.0648 125.012 24.2068V37.4H124.194ZM136.003 37.4V17.7637H136.822V37.4H136.003ZM136.412 14.1841C136.191 14.1841 135.999 14.1031 135.837 13.9412C135.675 13.7793 135.594 13.5875 135.594 13.3659C135.594 13.1443 135.675 12.9526 135.837 12.7906C135.999 12.6287 136.191 12.5478 136.412 12.5478C136.634 12.5478 136.826 12.6287 136.988 12.7906C137.15 12.9526 137.231 13.1443 137.231 13.3659C137.231 13.5875 137.15 13.7793 136.988 13.9412C136.826 14.1031 136.634 14.1841 136.412 14.1841ZM143.882 37.4V17.7637H144.7V20.883H144.802C145.262 19.8603 146.017 19.0421 147.065 18.4284C148.122 17.8148 149.328 17.508 150.683 17.508C150.785 17.508 150.853 17.508 150.887 17.508C150.921 17.508 150.99 17.508 151.092 17.508V18.3262C150.99 18.3262 150.921 18.3262 150.887 18.3262C150.853 18.3262 150.785 18.3262 150.683 18.3262C149.524 18.3262 148.492 18.5776 147.589 19.0804C146.694 19.5833 145.987 20.2779 145.467 21.1642C144.955 22.0506 144.7 23.0648 144.7 24.2068V37.4H143.882ZM155.691 37.4V17.7637H156.509V37.4H155.691ZM156.1 14.1841C155.878 14.1841 155.687 14.1031 155.525 13.9412C155.363 13.7793 155.282 13.5875 155.282 13.3659C155.282 13.1443 155.363 12.9526 155.525 12.7906C155.687 12.6287 155.878 12.5478 156.1 12.5478C156.322 12.5478 156.513 12.6287 156.675 12.7906C156.837 12.9526 156.918 13.1443 156.918 13.3659C156.918 13.5875 156.837 13.7793 156.675 13.9412C156.513 14.1031 156.322 14.1841 156.1 14.1841ZM169.705 17.7637V18.5818H161.933V17.7637H169.705ZM164.796 13.0591H165.615V33.258C165.615 34.025 165.785 34.6855 166.126 35.2395C166.467 35.785 166.919 36.2068 167.481 36.5051C168.044 36.7949 168.649 36.9398 169.296 36.9398C169.544 36.9398 169.769 36.9185 169.974 36.8759C170.187 36.8333 170.404 36.7693 170.626 36.6841L170.882 37.4512C170.626 37.5449 170.374 37.6174 170.127 37.6685C169.88 37.7281 169.603 37.758 169.296 37.758C168.495 37.758 167.749 37.5747 167.059 37.2083C166.377 36.8418 165.828 36.3219 165.41 35.6486C165.001 34.9753 164.796 34.1784 164.796 33.258V13.0591ZM188.767 30.9568V17.7637H189.585V37.4H188.767V34.2807H188.664C188.204 35.3034 187.445 36.1216 186.389 36.7353C185.34 37.3489 184.139 37.6557 182.784 37.6557C181.471 37.6557 180.312 37.3702 179.306 36.7992C178.301 36.2281 177.512 35.4398 176.941 34.4341C176.37 33.4284 176.085 32.2693 176.085 30.9568V17.7637H176.903V30.9568C176.903 32.6955 177.448 34.1103 178.539 35.2012C179.63 36.2921 181.045 36.8375 182.784 36.8375C183.943 36.8375 184.97 36.5861 185.865 36.0833C186.768 35.5804 187.475 34.8858 187.987 33.9995C188.507 33.1131 188.767 32.0989 188.767 30.9568ZM196.546 37.4V17.7637H197.364V20.883H197.466C197.926 19.8603 198.681 19.0421 199.729 18.4284C200.786 17.8148 201.992 17.508 203.347 17.508C203.449 17.508 203.517 17.508 203.551 17.508C203.585 17.508 203.654 17.508 203.756 17.508V18.3262C203.654 18.3262 203.585 18.3262 203.551 18.3262C203.517 18.3262 203.449 18.3262 203.347 18.3262C202.188 18.3262 201.156 18.5776 200.253 19.0804C199.358 19.5833 198.651 20.2779 198.131 21.1642C197.619 22.0506 197.364 23.0648 197.364 24.2068V37.4H196.546Z" fill="#4285F4"/>
    <line x1="75" y1="46.15" x2="205" y2="46.15" stroke="url(#paint0_linear_609_440)" stroke-width="0.5"/>
    <defs>
        <linearGradient id="paint0_linear_609_440" x1="205.132" y1="46.0002" x2="75.1318" y2="46.0001" gradientUnits="userSpaceOnUse">
            <stop stop-color="white" stop-opacity="0"/>
            <stop offset="0.25" stop-color="#4285F4" stop-opacity="0.5"/>
            <stop offset="0.5" stop-color="#4285F4"/>
            <stop offset="0.75" stop-color="#4285F4" stop-opacity="0.5"/>
            <stop offset="1" stop-color="white" stop-opacity="0"/>
        </linearGradient>
        <clipPath id="clip0_609_440">
            <rect width="21" height="21" fill="white" transform="translate(29 27.4)"/>
        </clipPath>
    </defs>
</svg>
