<svg width="24" height="27" viewBox="0 0 24 27" fill="none" xmlns="http://www.w3.org/2000/svg">
<path d="M21.3333 23.8822H2.66667V9.67827H21.3333M21.3333 3.22194H20V0.639404H17.3333V3.22194H6.66667V0.639404H4V3.22194H2.66667C1.95942 3.22194 1.28115 3.49403 0.781048 3.97834C0.280951 4.46266 0 5.11954 0 5.80447V23.8822C0 24.5671 0.280951 25.224 0.781048 25.7083C1.28115 26.1927 1.95942 26.4647 2.66667 26.4647H21.3333C22.0406 26.4647 22.7189 26.1927 23.219 25.7083C23.719 25.224 24 24.5671 24 23.8822V5.80447C24 5.11954 23.719 4.46266 23.219 3.97834C22.7189 3.49403 22.0406 3.22194 21.3333 3.22194ZM18.04 13.6295L16.6267 12.2608L10.12 18.5622L7.29333 15.8247L5.88 17.1934L10.12 21.2997L18.04 13.6295Z" fill="black" fill-opacity="0.8"/>
</svg>
