<svg width="24" height="26" viewBox="0 0 24 26" fill="none" xmlns="http://www.w3.org/2000/svg">
<path d="M12 6.05713C12.9283 6.05713 13.8185 6.44587 14.4749 7.13783C15.1313 7.8298 15.5 8.7683 15.5 9.74689C15.5 10.7255 15.1313 11.664 14.4749 12.3559C13.8185 13.0479 12.9283 13.4366 12 13.4366C11.0717 13.4366 10.1815 13.0479 9.52513 12.3559C8.86875 11.664 8.5 10.7255 8.5 9.74689C8.5 8.7683 8.86875 7.8298 9.52513 7.13783C10.1815 6.44587 11.0717 6.05713 12 6.05713ZM5 8.69267C5.56 8.69267 6.08 8.8508 6.53 9.13544C6.38 10.643 6.8 12.14 7.66 13.3101C7.16 14.3222 6.16 15.018 5 15.018C4.20435 15.018 3.44129 14.6848 2.87868 14.0917C2.31607 13.4985 2 12.6941 2 11.8553C2 11.0165 2.31607 10.2121 2.87868 9.61899C3.44129 9.02588 4.20435 8.69267 5 8.69267ZM19 8.69267C19.7956 8.69267 20.5587 9.02588 21.1213 9.61899C21.6839 10.2121 22 11.0165 22 11.8553C22 12.6941 21.6839 13.4985 21.1213 14.0917C20.5587 14.6848 19.7956 15.018 19 15.018C17.84 15.018 16.84 14.3222 16.34 13.3101C17.2119 12.1235 17.6166 10.6284 17.47 9.13544C17.92 8.8508 18.44 8.69267 19 8.69267ZM5.5 19.4984C5.5 17.3162 8.41 15.5451 12 15.5451C15.59 15.5451 18.5 17.3162 18.5 19.4984V21.3433H5.5V19.4984ZM0 21.3433V19.7619C0 18.2966 1.89 17.0632 4.45 16.7047C3.86 17.4216 3.5 18.4126 3.5 19.4984V21.3433H0ZM24 21.3433H20.5V19.4984C20.5 18.4126 20.14 17.4216 19.55 16.7047C22.11 17.0632 24 18.2966 24 19.7619V21.3433Z" fill="black" fill-opacity="0.8"/>
</svg>
