<svg width="24" height="26" viewBox="0 0 24 26" fill="none" xmlns="http://www.w3.org/2000/svg">
<path d="M12 12.8615C10.9 12.8615 10 11.9127 10 10.7531C10 9.59343 10.9 8.64464 12 8.64464C13.1 8.64464 14 9.59343 14 10.7531C14 11.9127 13.1 12.8615 12 12.8615ZM18 10.9639C18 7.13711 15.35 4.42777 12 4.42777C8.65 4.42777 6 7.13711 6 10.9639C6 13.4308 7.95 16.6989 12 20.5995C16.05 16.6989 18 13.4308 18 10.9639ZM12 2.31934C16.2 2.31934 20 5.71391 20 10.9639C20 14.4639 17.33 18.607 12 23.4037C6.67 18.607 4 14.4639 4 10.9639C4 5.71391 7.8 2.31934 12 2.31934Z" fill="black" fill-opacity="0.8"/>
</svg>
